<?xml version="1.0" encoding="UTF-8"?>
<svg width="512px" height="512px" viewBox="0 0 512 512" version="1.1" xmlns="http://www.w3.org/2000/svg" xmlns:xlink="http://www.w3.org/1999/xlink">
    <!-- Generator: Sketch 49.3 (51167) - http://www.bohemiancoding.com/sketch -->
    <title>icon</title>
    <desc>Created with Sketch.</desc>
    <defs></defs>
    <g id="Page-1" stroke="none" stroke-width="1" fill="none" fill-rule="evenodd">
        <g id="icon">
            <polygon id="Shape" fill-opacity="0.74" fill="#42A5F5" fill-rule="nonzero" points="0 0 512 0 512 512 0 512"></polygon>
            <polygon id="Shape" fill-opacity="0.03" fill="#000000" fill-rule="nonzero" points="511.999999 23.76 511.999999 511.76 21.6399994 512"></polygon>
            <g id="Group" stroke-linecap="square" transform="translate(76.000000, 77.000000)" stroke="#FFFFFF" stroke-opacity="0.76" stroke-width="11">
                <path d="M90.6100304,0.363100304 L45.5415805,0.363100304 C20.650963,0.363100304 0.473130699,20.5409326 0.473130699,45.4315502 L0.473130699,90.5 M0.473130699,271.5 L0.473130699,316.56845 C0.473130699,328.521346 5.22140018,339.984682 13.673374,348.436656 C22.1253479,356.88863 33.5886845,361.6369 45.5415805,361.6369 L90.6100304,361.6369 M361.74693,90.5 L361.74693,45.4315502 C361.74693,20.5409326 341.569098,0.363100304 316.67848,0.363100304 L271.61003,0.363100304 M271.61003,361.6369 L316.67848,361.6369 C341.569098,361.6369 361.74693,341.459067 361.74693,316.56845 L361.74693,271.5" id="Shape"></path>
            </g>
            <g id="Group" transform="translate(128.000000, 127.000000)" fill-rule="nonzero">
                <circle id="Oval" fill="#90CAF9" cx="128" cy="128" r="121.237736"></circle>
                <path d="M128,249.237736 C194.898113,249.237736 249.237736,195.018868 249.237736,128.120755 C249.237736,102.762264 241.388679,78.1283019 226.656604,57.4792453 L57.6,226.535849 C78.1283019,241.388679 102.762264,249.237736 128,249.237736 Z" id="Shape" fill-opacity="0.6" fill="#42A5F5"></path>
                <path d="M128,255.275472 C57.7207547,255.275472 0.724528302,198.279245 0.724528302,128 C0.724528302,57.7207547 57.7207547,0.724528302 128,0.724528302 C198.279245,0.724528302 255.275472,57.7207547 255.275472,128 C255.154717,198.279245 198.279245,255.154717 128,255.275472 Z M128,12.8 C64.3622642,12.8 12.8,64.3622642 12.8,128 C12.8,191.637736 64.3622642,243.2 128,243.2 C191.637736,243.2 243.2,191.637736 243.2,128 C243.126801,64.4071413 191.592859,12.8731986 128,12.8 Z" id="Shape" fill="#42A5F5"></path>
                <circle id="Oval" fill="#35668E" cx="128" cy="128" r="45.4037736"></circle>
                <path d="M128,173.403774 C153.116981,173.403774 173.403774,152.996226 173.403774,128 C173.403774,122.928302 172.558491,117.977358 170.867925,113.14717 L113.026415,170.988679 C117.977358,172.679245 122.928302,173.524528 128,173.403774 Z" id="Shape" fill="#35668E"></path>
                <path d="M128,179.441509 C99.5018868,179.441509 76.4377358,156.377358 76.4377358,128 C76.4377358,99.6226415 99.5018868,76.4377358 127.879245,76.4377358 C156.256604,76.4377358 179.441509,99.5018868 179.441509,127.879245 C179.441509,156.377358 156.377358,179.441509 128,179.441509 Z M128,88.5132075 C106.264151,88.5132075 88.5132075,106.143396 88.5132075,127.879245 C88.5132075,149.615094 106.143396,167.366038 128,167.366038 C149.856604,167.366038 167.366038,149.735849 167.366038,128 C167.366038,106.264151 149.735849,88.6339623 128,88.5132075 Z" id="Shape" fill="#42A5F5"></path>
            </g>
        </g>
    </g>
</svg>