<svg xmlns="http://www.w3.org/2000/svg" width="512" height="512" viewBox="0 0 512 512">
  <g fill="none" fill-rule="evenodd">
    <path fill="#42A5F5" fill-opacity=".74" fill-rule="nonzero" d="M.1 0h512v512H.1z"/>
    <path fill="#000" fill-opacity=".03" fill-rule="nonzero" d="M512.1 23.76v488L21.74 512z"/>
    <g stroke="#FFF" stroke-linecap="square" stroke-opacity=".76" stroke-width="4.55">
      <path d="M174.35 92.33h-40.96a40.96 40.96 0 0 0-40.96 40.96v40.96M92.43 338.75v40.96a40.96 40.96 0 0 0 40.96 40.96h40.96M420.77 174.25v-40.96a40.96 40.96 0 0 0-40.96-40.96h-40.96M338.85 420.67h40.96a40.96 40.96 0 0 0 40.96-40.96v-40.96"/>
    </g>
    <g fill-rule="nonzero" transform="translate(150.1 150)">
      <circle cx="106" cy="106" r="100.4" fill="#90CAF9"/>
      <path fill="#42A5F5" fill-opacity=".6" d="M106 206.4c55.4 0 100.4-44.9 100.4-100.3 0-21-6.5-41.4-18.7-58.5l-140 140c17 12.3 37.4 18.8 58.3 18.8z"/>
      <path fill="#42A5F5" d="M106 211.4C47.8 211.4.6 164.2.6 106S47.8.6 106 .6 211.4 47.8 211.4 106c-.1 58.2-47.2 105.3-105.4 105.4zm0-200.8c-52.7 0-95.4 42.7-95.4 95.4s42.7 95.4 95.4 95.4 95.4-42.7 95.4-95.4A95.51 95.51 0 0 0 106 10.6z"/>
      <circle cx="106" cy="106" r="37.6" fill="#35668E"/>
      <path fill="#35668E" d="M106 143.6c20.8 0 37.6-16.9 37.6-37.6 0-4.2-.7-8.3-2.1-12.3l-47.9 47.9c4.1 1.4 8.2 2.1 12.4 2z"/>
      <path fill="#42A5F5" d="M106 148.6c-23.6 0-42.7-19.1-42.7-42.6s19.1-42.7 42.6-42.7 42.7 19.1 42.7 42.6c0 23.6-19.1 42.7-42.6 42.7zm0-75.3c-18 0-32.7 14.6-32.7 32.6s14.6 32.7 32.7 32.7 32.6-14.6 32.6-32.6S124 73.4 106 73.3z"/>
    </g>
  </g>
</svg>
